<?xml version="1.0" encoding="UTF-8"?>
<svg id="Layer_2" data-name="Layer 2" xmlns="http://www.w3.org/2000/svg" viewBox="0 0 348.13 73.16">
  <defs>
    <style>
      .cls-1 {
        fill: #231f20;
      }
    </style>
  </defs>
  <g id="Logo">
    <g>
      <g>
        <path class="cls-1" d="M90.23,14.21h8.69v17.89l17-17.89h11.57l-17.25,17.89,18.85,26.84h-10.67l-14.06-20.77-5.43,5.69v15.08h-8.69V14.21Z"/>
        <path class="cls-1" d="M128.57,50c0-6.33,4.28-9.71,14.06-10.74l6.26-.64v-.7c0-3.39-2.43-5.43-6.07-5.43-3.39,0-5.88,1.72-6.33,5.05h-7.86c.89-6.65,6.71-11.31,14.19-11.31,8.31,0,14.12,4.54,14.12,12.78v19.94h-8.05v-4.09c-1.41,2.56-5.11,4.6-9.2,4.6-6.84,0-11.12-4.09-11.12-9.46ZM142.95,45.2c-4.54.51-6.45,1.79-6.45,4.47,0,2.37,1.92,3.71,4.79,3.71,4.6,0,7.6-3.83,7.6-8.44v-.51l-5.94.77Z"/>
        <path class="cls-1" d="M163.01,26.74h8.12v4.35c1.79-3.07,5.24-4.86,9.39-4.86,1.41,0,2.56.19,3.64.7v7.6c-1.6-.58-2.88-.7-4.34-.7-4.67,0-8.69,3.83-8.69,12.91v12.21h-8.12V26.74Z"/>
        <path class="cls-1" d="M184.8,42.84c0-10.1,6.2-16.62,15.66-16.62,4.22,0,8.18,1.85,9.97,4.47V13.7h8.12v45.24h-8.12v-4.03c-1.79,2.68-5.75,4.54-9.97,4.54-9.46,0-15.66-6.52-15.66-16.61ZM210.43,42.84c0-5.82-3.58-9.71-8.69-9.71s-8.69,3.9-8.69,9.71,3.58,9.65,8.69,9.65,8.69-3.96,8.69-9.65Z"/>
        <path class="cls-1" d="M223.27,42.78c0-9.71,7.09-16.55,16.87-16.55s16.87,6.84,16.87,16.55-7.09,16.68-16.87,16.68-16.87-6.96-16.87-16.68ZM248.83,42.78c0-5.69-3.58-9.65-8.69-9.65s-8.69,3.9-8.69,9.65,3.58,9.78,8.69,9.78,8.69-3.96,8.69-9.78Z"/>
        <path class="cls-1" d="M261.74,26.74h8.12v4.47c1.85-2.81,5.56-4.98,10.03-4.98s8.31,2.24,9.52,5.43c2.43-3.2,6.45-5.43,10.74-5.43,6.84,0,11.7,4.54,11.7,11.82v20.9h-8.12v-19.17c0-3.96-2.11-6.46-5.62-6.46-4.6,0-7.28,4.28-7.28,9.65v15.98h-8.12v-19.17c0-3.96-2.04-6.46-5.56-6.46-4.6,0-7.29,4.28-7.29,9.65v15.98h-8.12V26.74Z"/>
        <path class="cls-1" d="M316.18,42.84c0-9.71,6.84-16.62,16.23-16.62,10.48,0,16.93,8.12,15.53,18.34h-23.64c.64,5.37,4.03,8.12,8.44,8.12,3.96,0,6.39-1.92,6.97-4.28h8.12c-1.28,6.45-6.13,11.05-15.08,11.05-10.1,0-16.55-6.9-16.55-16.61ZM339.57,38.62c-.19-3.71-3-6.13-7.16-6.13s-6.77,2.11-7.8,6.13h14.95Z"/>
      </g>
      <g>
        <path class="cls-1" d="M30.4,64.63c-5.59-1.56-22.63-7.97-22.63-28.05,0-.26.04-.51.12-.75.55-1.56,1.87-1.57,3.14-1.58,1.03,0,2.78,0,4.87,0h7.73c2.63.01,5.1.02,6.8.02l.06-5.39c.01-1.25,1.04-2.27,2.3-2.27h10.54L31.79.32C13.85,2.66,0,18,0,36.58s13.14,33.12,30.4,36.06v-8.01Z"/>
        <path class="cls-1" d="M36.68,0l11.13,25.23c.05.08.08.2.11.31.38,1.31.12,2.77-.71,3.89-.85,1.12-2.18,1.78-3.57,1.78h-8.57l-.06,5.39c-.01,1.26-1.05,2.28-2.31,2.28h-4.57c-3.93-.02-8.14-.03-11.5-.03-1.64,0-3.07,0-4.16,0,1.42,18.08,19.84,21.57,20.63,21.71,1.1.19,1.91,1.14,1.91,2.27v10.28c.52.03,1.04.05,1.56.05,20.21,0,36.58-16.38,36.58-36.58S56.84.06,36.68,0ZM40.61,51.2c0,1.27-1.03,2.3-2.3,2.3s-2.3-1.03-2.3-2.3v-4.35c0-1.27,1.03-2.3,2.3-2.3s2.3,1.03,2.3,2.3v4.35ZM48.18,57.73c0,1.27-1.03,2.3-2.3,2.3s-2.3-1.03-2.3-2.3v-17.41c0-1.27,1.03-2.3,2.3-2.3s2.3,1.03,2.3,2.3v17.41ZM55.76,53.37c0,1.27-1.03,2.3-2.3,2.3s-2.3-1.03-2.3-2.3v-8.7c0-1.27,1.03-2.3,2.3-2.3s2.3,1.03,2.3,2.3v8.7ZM61.04,53.5c-1.27,0-2.3-1.03-2.3-2.3v-4.35c0-1.27,1.03-2.3,2.3-2.3s2.3,1.03,2.3,2.3v4.35c0,1.27-1.03,2.3-2.3,2.3Z"/>
      </g>
    </g>
  </g>
</svg>